<svg id="Layer_1" enable-background="new 0 0 511.481 511.481" height="512" viewBox="0 0 511.481 511.481" width="512" xmlns="http://www.w3.org/2000/svg"><path d="m213.074 85.333c-117.449 0-213 95.551-213 213 0 159.613 169.451 261.524 309.832 189.763 10.327-5.279 14.419-17.93 9.14-28.257-5.279-10.326-17.929-14.417-28.257-9.14-112.96 57.745-248.715-24.524-248.715-152.366 0-94.29 76.71-171 171-171s171 76.71 171 171v32c0 17.829-14.505 32.333-32.333 32.333s-32.333-14.505-32.333-32.333v-32c0-58.632-47.701-106.333-106.333-106.333s-106.335 47.701-106.335 106.333 47.701 106.333 106.333 106.333c30.225 0 57.545-12.677 76.923-32.992 13.355 19.881 36.045 32.992 61.743 32.992 40.988 0 74.333-33.346 74.333-74.333v-32c.002-117.449-95.549-213-212.998-213zm0 277.334c-35.474 0-64.333-28.86-64.333-64.333s28.86-64.333 64.333-64.333 64.333 28.86 64.333 64.333-28.86 64.333-64.333 64.333z"/><path d="m490.407 42.667h-21.667v-21.667c0-11.598-9.402-21-21-21s-21 9.402-21 21v21.667h-21.667c-11.598 0-21 9.402-21 21s9.402 21 21 21h21.667v21.667c0 11.598 9.402 21 21 21s21-9.402 21-21v-21.667h21.667c11.598 0 21-9.402 21-21s-9.402-21-21-21z"/></svg>